<mxfile host="app.diagrams.net" modified="2021-10-02T14:50:27.287Z" agent="5.0 (Windows NT 10.0; Win64; x64) AppleWebKit/537.36 (KHTML, like Gecko) Chrome/93.0.4577.82 Safari/537.36 OPR/79.0.4143.50" etag="vGkTD6U8-NxLYMcCysTB" version="15.2.1" type="github">
  <diagram id="R2lEEEUBdFMjLlhIrx00" name="Page-1">
    <mxGraphModel dx="571" dy="340" grid="1" gridSize="10" guides="1" tooltips="1" connect="1" arrows="1" fold="1" page="1" pageScale="1" pageWidth="850" pageHeight="1100" math="0" shadow="0" extFonts="Permanent Marker^https://fonts.googleapis.com/css?family=Permanent+Marker">
      <root>
        <mxCell id="0" />
        <mxCell id="1" parent="0" />
        <mxCell id="lezJPWRJIHB03nq9r9CJ-42" value="" style="rounded=0;whiteSpace=wrap;html=1;fontColor=#FFFFFF;fillColor=#E3E3E3;strokeColor=none;" vertex="1" parent="1">
          <mxGeometry width="850" height="500" as="geometry" />
        </mxCell>
        <mxCell id="lezJPWRJIHB03nq9r9CJ-43" value="" style="rounded=0;whiteSpace=wrap;html=1;fillColor=#919E90;strokeColor=none;" vertex="1" parent="1">
          <mxGeometry y="480" width="850" height="20" as="geometry" />
        </mxCell>
        <mxCell id="lezJPWRJIHB03nq9r9CJ-45" value="" style="rounded=0;whiteSpace=wrap;html=1;fillColor=#919E90;strokeColor=none;" vertex="1" parent="1">
          <mxGeometry width="850" height="110" as="geometry" />
        </mxCell>
        <mxCell id="lezJPWRJIHB03nq9r9CJ-46" value="" style="group" vertex="1" connectable="0" parent="1">
          <mxGeometry x="20" y="130" width="810" height="330" as="geometry" />
        </mxCell>
        <mxCell id="lezJPWRJIHB03nq9r9CJ-3" value="USER" style="rounded=0;whiteSpace=wrap;html=1;fillColor=#f0a30a;strokeColor=#BD7000;fontColor=#FFFFFF;fontStyle=1;fontFamily=Lucida Console;" vertex="1" parent="lezJPWRJIHB03nq9r9CJ-46">
          <mxGeometry x="140" y="150" width="120" height="40" as="geometry" />
        </mxCell>
        <mxCell id="lezJPWRJIHB03nq9r9CJ-4" value="Email" style="ellipse;whiteSpace=wrap;html=1;rounded=0;fillColor=#fff2cc;strokeColor=#d6b656;" vertex="1" parent="lezJPWRJIHB03nq9r9CJ-46">
          <mxGeometry x="60" y="270" width="80" height="40" as="geometry" />
        </mxCell>
        <mxCell id="lezJPWRJIHB03nq9r9CJ-5" value="Full Name" style="ellipse;whiteSpace=wrap;html=1;rounded=0;fillColor=#fff2cc;strokeColor=#d6b656;" vertex="1" parent="lezJPWRJIHB03nq9r9CJ-46">
          <mxGeometry x="60" y="40" width="80" height="40" as="geometry" />
        </mxCell>
        <mxCell id="lezJPWRJIHB03nq9r9CJ-6" value="Upload" style="rhombus;whiteSpace=wrap;html=1;rounded=0;" vertex="1" parent="lezJPWRJIHB03nq9r9CJ-46">
          <mxGeometry x="325" width="160" height="60" as="geometry" />
        </mxCell>
        <mxCell id="lezJPWRJIHB03nq9r9CJ-8" value="Download" style="rhombus;whiteSpace=wrap;html=1;rounded=0;" vertex="1" parent="lezJPWRJIHB03nq9r9CJ-46">
          <mxGeometry x="325" y="90" width="160" height="60" as="geometry" />
        </mxCell>
        <mxCell id="lezJPWRJIHB03nq9r9CJ-9" value="Read/View" style="rhombus;whiteSpace=wrap;html=1;rounded=0;" vertex="1" parent="lezJPWRJIHB03nq9r9CJ-46">
          <mxGeometry x="325" y="180" width="160" height="60" as="geometry" />
        </mxCell>
        <mxCell id="lezJPWRJIHB03nq9r9CJ-10" value="FILE" style="rounded=0;whiteSpace=wrap;html=1;fillColor=#1ba1e2;strokeColor=#006EAF;fontColor=#ffffff;fontFamily=Lucida Console;" vertex="1" parent="lezJPWRJIHB03nq9r9CJ-46">
          <mxGeometry x="540" y="150" width="120" height="40" as="geometry" />
        </mxCell>
        <mxCell id="lezJPWRJIHB03nq9r9CJ-11" value="Comment" style="ellipse;whiteSpace=wrap;html=1;rounded=0;fillColor=#dae8fc;strokeColor=#6c8ebf;" vertex="1" parent="lezJPWRJIHB03nq9r9CJ-46">
          <mxGeometry x="550" y="290" width="80" height="40" as="geometry" />
        </mxCell>
        <mxCell id="lezJPWRJIHB03nq9r9CJ-12" value="Type" style="ellipse;whiteSpace=wrap;html=1;rounded=0;fillColor=#dae8fc;strokeColor=#6c8ebf;" vertex="1" parent="lezJPWRJIHB03nq9r9CJ-46">
          <mxGeometry x="550" y="20" width="80" height="40" as="geometry" />
        </mxCell>
        <mxCell id="lezJPWRJIHB03nq9r9CJ-13" value="&lt;u&gt;Name&lt;/u&gt;" style="ellipse;whiteSpace=wrap;html=1;rounded=0;fillColor=#dae8fc;strokeColor=#6c8ebf;" vertex="1" parent="lezJPWRJIHB03nq9r9CJ-46">
          <mxGeometry x="650" y="60" width="80" height="40" as="geometry" />
        </mxCell>
        <mxCell id="lezJPWRJIHB03nq9r9CJ-14" value="Last_Modified" style="ellipse;whiteSpace=wrap;html=1;rounded=0;fillColor=#dae8fc;strokeColor=#6c8ebf;" vertex="1" parent="lezJPWRJIHB03nq9r9CJ-46">
          <mxGeometry x="730" y="120" width="80" height="40" as="geometry" />
        </mxCell>
        <mxCell id="lezJPWRJIHB03nq9r9CJ-15" value="Size" style="ellipse;whiteSpace=wrap;html=1;rounded=0;fillColor=#dae8fc;strokeColor=#6c8ebf;" vertex="1" parent="lezJPWRJIHB03nq9r9CJ-46">
          <mxGeometry x="650" y="240" width="80" height="40" as="geometry" />
        </mxCell>
        <mxCell id="lezJPWRJIHB03nq9r9CJ-16" value="Date_Created" style="ellipse;whiteSpace=wrap;html=1;rounded=0;fillColor=#dae8fc;strokeColor=#6c8ebf;" vertex="1" parent="lezJPWRJIHB03nq9r9CJ-46">
          <mxGeometry x="730" y="190" width="80" height="40" as="geometry" />
        </mxCell>
        <mxCell id="lezJPWRJIHB03nq9r9CJ-17" value="Comment" style="rhombus;whiteSpace=wrap;html=1;rounded=0;fillColor=#7D7D7D;strokeColor=none;fontColor=#FFFFFF;fontFamily=Lucida Console;" vertex="1" parent="lezJPWRJIHB03nq9r9CJ-46">
          <mxGeometry x="325" y="270" width="160" height="60" as="geometry" />
        </mxCell>
        <mxCell id="lezJPWRJIHB03nq9r9CJ-18" value="" style="endArrow=none;html=1;entryX=0.5;entryY=1;entryDx=0;entryDy=0;exitX=1;exitY=0;exitDx=0;exitDy=0;" edge="1" parent="lezJPWRJIHB03nq9r9CJ-46" source="lezJPWRJIHB03nq9r9CJ-4" target="lezJPWRJIHB03nq9r9CJ-3">
          <mxGeometry width="50" height="50" relative="1" as="geometry">
            <mxPoint x="390" y="230" as="sourcePoint" />
            <mxPoint x="440" y="180" as="targetPoint" />
          </mxGeometry>
        </mxCell>
        <mxCell id="lezJPWRJIHB03nq9r9CJ-19" value="" style="endArrow=none;html=1;entryX=0.5;entryY=0;entryDx=0;entryDy=0;exitX=1;exitY=1;exitDx=0;exitDy=0;" edge="1" parent="lezJPWRJIHB03nq9r9CJ-46" source="lezJPWRJIHB03nq9r9CJ-5" target="lezJPWRJIHB03nq9r9CJ-3">
          <mxGeometry width="50" height="50" relative="1" as="geometry">
            <mxPoint x="390" y="230" as="sourcePoint" />
            <mxPoint x="440" y="180" as="targetPoint" />
          </mxGeometry>
        </mxCell>
        <mxCell id="lezJPWRJIHB03nq9r9CJ-20" value="" style="endArrow=none;html=1;entryX=1;entryY=0;entryDx=0;entryDy=0;exitX=0;exitY=0.5;exitDx=0;exitDy=0;" edge="1" parent="lezJPWRJIHB03nq9r9CJ-46" source="lezJPWRJIHB03nq9r9CJ-6" target="lezJPWRJIHB03nq9r9CJ-3">
          <mxGeometry width="50" height="50" relative="1" as="geometry">
            <mxPoint x="390" y="230" as="sourcePoint" />
            <mxPoint x="440" y="180" as="targetPoint" />
          </mxGeometry>
        </mxCell>
        <mxCell id="lezJPWRJIHB03nq9r9CJ-21" value="" style="endArrow=none;html=1;entryX=1.002;entryY=0.374;entryDx=0;entryDy=0;exitX=0;exitY=0.5;exitDx=0;exitDy=0;entryPerimeter=0;" edge="1" parent="lezJPWRJIHB03nq9r9CJ-46" source="lezJPWRJIHB03nq9r9CJ-8" target="lezJPWRJIHB03nq9r9CJ-3">
          <mxGeometry width="50" height="50" relative="1" as="geometry">
            <mxPoint x="390" y="230" as="sourcePoint" />
            <mxPoint x="440" y="180" as="targetPoint" />
          </mxGeometry>
        </mxCell>
        <mxCell id="lezJPWRJIHB03nq9r9CJ-22" value="" style="endArrow=none;html=1;exitX=0.995;exitY=0.631;exitDx=0;exitDy=0;entryX=0;entryY=0.5;entryDx=0;entryDy=0;exitPerimeter=0;" edge="1" parent="lezJPWRJIHB03nq9r9CJ-46" source="lezJPWRJIHB03nq9r9CJ-3" target="lezJPWRJIHB03nq9r9CJ-9">
          <mxGeometry width="50" height="50" relative="1" as="geometry">
            <mxPoint x="290" y="230" as="sourcePoint" />
            <mxPoint x="340" y="180" as="targetPoint" />
          </mxGeometry>
        </mxCell>
        <mxCell id="lezJPWRJIHB03nq9r9CJ-23" value="" style="endArrow=none;html=1;entryX=1;entryY=1;entryDx=0;entryDy=0;exitX=0;exitY=0.5;exitDx=0;exitDy=0;" edge="1" parent="lezJPWRJIHB03nq9r9CJ-46" source="lezJPWRJIHB03nq9r9CJ-17" target="lezJPWRJIHB03nq9r9CJ-3">
          <mxGeometry width="50" height="50" relative="1" as="geometry">
            <mxPoint x="290" y="230" as="sourcePoint" />
            <mxPoint x="340" y="180" as="targetPoint" />
          </mxGeometry>
        </mxCell>
        <mxCell id="lezJPWRJIHB03nq9r9CJ-24" value="" style="endArrow=none;html=1;entryX=-0.003;entryY=0.377;entryDx=0;entryDy=0;entryPerimeter=0;exitX=1;exitY=0.5;exitDx=0;exitDy=0;" edge="1" parent="lezJPWRJIHB03nq9r9CJ-46" source="lezJPWRJIHB03nq9r9CJ-8" target="lezJPWRJIHB03nq9r9CJ-10">
          <mxGeometry width="50" height="50" relative="1" as="geometry">
            <mxPoint x="480" y="170" as="sourcePoint" />
            <mxPoint x="510" y="180" as="targetPoint" />
          </mxGeometry>
        </mxCell>
        <mxCell id="lezJPWRJIHB03nq9r9CJ-25" value="" style="endArrow=none;html=1;entryX=-0.001;entryY=0.624;entryDx=0;entryDy=0;entryPerimeter=0;exitX=1;exitY=0.5;exitDx=0;exitDy=0;" edge="1" parent="lezJPWRJIHB03nq9r9CJ-46" source="lezJPWRJIHB03nq9r9CJ-9" target="lezJPWRJIHB03nq9r9CJ-10">
          <mxGeometry width="50" height="50" relative="1" as="geometry">
            <mxPoint x="520" y="210" as="sourcePoint" />
            <mxPoint x="570" y="160" as="targetPoint" />
          </mxGeometry>
        </mxCell>
        <mxCell id="lezJPWRJIHB03nq9r9CJ-26" value="" style="endArrow=none;html=1;entryX=0;entryY=0;entryDx=0;entryDy=0;exitX=1;exitY=0.5;exitDx=0;exitDy=0;" edge="1" parent="lezJPWRJIHB03nq9r9CJ-46" source="lezJPWRJIHB03nq9r9CJ-6" target="lezJPWRJIHB03nq9r9CJ-10">
          <mxGeometry width="50" height="50" relative="1" as="geometry">
            <mxPoint x="460" y="180" as="sourcePoint" />
            <mxPoint x="510" y="130" as="targetPoint" />
          </mxGeometry>
        </mxCell>
        <mxCell id="lezJPWRJIHB03nq9r9CJ-27" value="" style="endArrow=none;html=1;entryX=0;entryY=1;entryDx=0;entryDy=0;exitX=1;exitY=0.5;exitDx=0;exitDy=0;" edge="1" parent="lezJPWRJIHB03nq9r9CJ-46" source="lezJPWRJIHB03nq9r9CJ-17" target="lezJPWRJIHB03nq9r9CJ-10">
          <mxGeometry width="50" height="50" relative="1" as="geometry">
            <mxPoint x="460" y="180" as="sourcePoint" />
            <mxPoint x="510" y="130" as="targetPoint" />
          </mxGeometry>
        </mxCell>
        <mxCell id="lezJPWRJIHB03nq9r9CJ-28" value="" style="endArrow=none;html=1;entryX=1;entryY=0.25;entryDx=0;entryDy=0;exitX=0;exitY=0.5;exitDx=0;exitDy=0;" edge="1" parent="lezJPWRJIHB03nq9r9CJ-46" source="lezJPWRJIHB03nq9r9CJ-14" target="lezJPWRJIHB03nq9r9CJ-10">
          <mxGeometry width="50" height="50" relative="1" as="geometry">
            <mxPoint x="460" y="180" as="sourcePoint" />
            <mxPoint x="510" y="130" as="targetPoint" />
          </mxGeometry>
        </mxCell>
        <mxCell id="lezJPWRJIHB03nq9r9CJ-29" value="" style="endArrow=none;html=1;entryX=0.5;entryY=0;entryDx=0;entryDy=0;exitX=0.5;exitY=1;exitDx=0;exitDy=0;" edge="1" parent="lezJPWRJIHB03nq9r9CJ-46" source="lezJPWRJIHB03nq9r9CJ-12" target="lezJPWRJIHB03nq9r9CJ-10">
          <mxGeometry width="50" height="50" relative="1" as="geometry">
            <mxPoint x="460" y="180" as="sourcePoint" />
            <mxPoint x="510" y="130" as="targetPoint" />
          </mxGeometry>
        </mxCell>
        <mxCell id="lezJPWRJIHB03nq9r9CJ-30" value="" style="endArrow=none;html=1;entryX=0.75;entryY=0;entryDx=0;entryDy=0;exitX=0.5;exitY=1;exitDx=0;exitDy=0;" edge="1" parent="lezJPWRJIHB03nq9r9CJ-46" source="lezJPWRJIHB03nq9r9CJ-13" target="lezJPWRJIHB03nq9r9CJ-10">
          <mxGeometry width="50" height="50" relative="1" as="geometry">
            <mxPoint x="460" y="180" as="sourcePoint" />
            <mxPoint x="510" y="130" as="targetPoint" />
          </mxGeometry>
        </mxCell>
        <mxCell id="lezJPWRJIHB03nq9r9CJ-31" value="" style="endArrow=none;html=1;entryX=0.75;entryY=1;entryDx=0;entryDy=0;exitX=0.5;exitY=0;exitDx=0;exitDy=0;" edge="1" parent="lezJPWRJIHB03nq9r9CJ-46" source="lezJPWRJIHB03nq9r9CJ-15" target="lezJPWRJIHB03nq9r9CJ-10">
          <mxGeometry width="50" height="50" relative="1" as="geometry">
            <mxPoint x="460" y="180" as="sourcePoint" />
            <mxPoint x="510" y="130" as="targetPoint" />
          </mxGeometry>
        </mxCell>
        <mxCell id="lezJPWRJIHB03nq9r9CJ-32" value="" style="endArrow=none;html=1;entryX=0.5;entryY=1;entryDx=0;entryDy=0;exitX=0.5;exitY=0;exitDx=0;exitDy=0;" edge="1" parent="lezJPWRJIHB03nq9r9CJ-46" source="lezJPWRJIHB03nq9r9CJ-11" target="lezJPWRJIHB03nq9r9CJ-10">
          <mxGeometry width="50" height="50" relative="1" as="geometry">
            <mxPoint x="460" y="180" as="sourcePoint" />
            <mxPoint x="510" y="130" as="targetPoint" />
          </mxGeometry>
        </mxCell>
        <mxCell id="lezJPWRJIHB03nq9r9CJ-34" value="" style="endArrow=none;html=1;entryX=1;entryY=0.75;entryDx=0;entryDy=0;exitX=0;exitY=0.5;exitDx=0;exitDy=0;" edge="1" parent="lezJPWRJIHB03nq9r9CJ-46" source="lezJPWRJIHB03nq9r9CJ-16" target="lezJPWRJIHB03nq9r9CJ-10">
          <mxGeometry width="50" height="50" relative="1" as="geometry">
            <mxPoint x="460" y="180" as="sourcePoint" />
            <mxPoint x="510" y="130" as="targetPoint" />
          </mxGeometry>
        </mxCell>
        <mxCell id="lezJPWRJIHB03nq9r9CJ-35" value="&lt;u&gt;Username&lt;/u&gt;" style="ellipse;whiteSpace=wrap;html=1;rounded=0;fillColor=#fff2cc;strokeColor=#d6b656;" vertex="1" parent="lezJPWRJIHB03nq9r9CJ-46">
          <mxGeometry y="110" width="80" height="40" as="geometry" />
        </mxCell>
        <mxCell id="lezJPWRJIHB03nq9r9CJ-36" value="Password" style="ellipse;whiteSpace=wrap;html=1;rounded=0;fillColor=#fff2cc;strokeColor=#d6b656;" vertex="1" parent="lezJPWRJIHB03nq9r9CJ-46">
          <mxGeometry y="200" width="80" height="40" as="geometry" />
        </mxCell>
        <mxCell id="lezJPWRJIHB03nq9r9CJ-37" value="" style="endArrow=none;html=1;entryX=0;entryY=1;entryDx=0;entryDy=0;exitX=1;exitY=0.5;exitDx=0;exitDy=0;" edge="1" parent="lezJPWRJIHB03nq9r9CJ-46" source="lezJPWRJIHB03nq9r9CJ-36" target="lezJPWRJIHB03nq9r9CJ-3">
          <mxGeometry width="50" height="50" relative="1" as="geometry">
            <mxPoint x="380" y="220" as="sourcePoint" />
            <mxPoint x="430" y="170" as="targetPoint" />
          </mxGeometry>
        </mxCell>
        <mxCell id="lezJPWRJIHB03nq9r9CJ-38" value="" style="endArrow=none;html=1;entryX=0;entryY=0;entryDx=0;entryDy=0;exitX=1;exitY=0.5;exitDx=0;exitDy=0;" edge="1" parent="lezJPWRJIHB03nq9r9CJ-46" source="lezJPWRJIHB03nq9r9CJ-35" target="lezJPWRJIHB03nq9r9CJ-3">
          <mxGeometry width="50" height="50" relative="1" as="geometry">
            <mxPoint x="380" y="220" as="sourcePoint" />
            <mxPoint x="430" y="170" as="targetPoint" />
          </mxGeometry>
        </mxCell>
        <mxCell id="lezJPWRJIHB03nq9r9CJ-39" value="Upload" style="rhombus;whiteSpace=wrap;html=1;rounded=0;fillColor=#7D7D7D;strokeColor=none;fontColor=#FFFFFF;fontFamily=Lucida Console;" vertex="1" parent="lezJPWRJIHB03nq9r9CJ-46">
          <mxGeometry x="325" width="160" height="60" as="geometry" />
        </mxCell>
        <mxCell id="lezJPWRJIHB03nq9r9CJ-40" value="Download" style="rhombus;whiteSpace=wrap;html=1;rounded=0;fillColor=#7D7D7D;strokeColor=none;fontColor=#FFFFFF;fontFamily=Lucida Console;" vertex="1" parent="lezJPWRJIHB03nq9r9CJ-46">
          <mxGeometry x="325" y="90" width="160" height="60" as="geometry" />
        </mxCell>
        <mxCell id="lezJPWRJIHB03nq9r9CJ-41" value="Read/View" style="rhombus;whiteSpace=wrap;html=1;rounded=0;fillColor=#7D7D7D;strokeColor=none;fontColor=#FFFFFF;fontFamily=Lucida Console;" vertex="1" parent="lezJPWRJIHB03nq9r9CJ-46">
          <mxGeometry x="325" y="180" width="160" height="60" as="geometry" />
        </mxCell>
        <mxCell id="lezJPWRJIHB03nq9r9CJ-47" value="Entity Relationship Diagram (ERD)" style="text;html=1;strokeColor=none;fillColor=none;align=center;verticalAlign=middle;whiteSpace=wrap;rounded=0;fontColor=#FFFFFF;fontSize=16;fontStyle=0;fontFamily=Verdana;" vertex="1" parent="1">
          <mxGeometry x="180" y="10" width="490" height="20" as="geometry" />
        </mxCell>
        <mxCell id="lezJPWRJIHB03nq9r9CJ-48" value="&lt;span style=&quot;font-size: 24px;&quot;&gt;Collaborative File Sharing&amp;nbsp;&lt;/span&gt;" style="text;html=1;strokeColor=none;fillColor=none;align=center;verticalAlign=middle;whiteSpace=wrap;rounded=0;fontColor=#FFFFFF;fontSize=24;fontStyle=1;fontFamily=Verdana;" vertex="1" parent="1">
          <mxGeometry x="180" y="30" width="490" height="30" as="geometry" />
        </mxCell>
        <mxCell id="lezJPWRJIHB03nq9r9CJ-49" value="&lt;font style=&quot;font-size: 10px; line-height: 80%;&quot;&gt;Nama : Daniel Hasiando Sinaga&lt;/font&gt;" style="text;html=1;strokeColor=none;fillColor=none;align=center;verticalAlign=middle;whiteSpace=wrap;rounded=0;fontColor=#FFFF99;fontSize=10;fontStyle=0;fontFamily=Verdana;" vertex="1" parent="1">
          <mxGeometry x="180" y="70" width="490" height="20" as="geometry" />
        </mxCell>
        <mxCell id="lezJPWRJIHB03nq9r9CJ-50" value="&lt;p class=&quot;MsoNormal&quot; style=&quot;text-align: justify ; line-height: 115%&quot;&gt;NIM : 123210047&lt;/p&gt;" style="text;html=1;strokeColor=none;fillColor=none;align=center;verticalAlign=middle;whiteSpace=wrap;rounded=0;fontColor=#FFFF99;fontSize=10;fontStyle=0;fontFamily=Verdana;" vertex="1" parent="1">
          <mxGeometry x="180" y="80" width="490" height="20" as="geometry" />
        </mxCell>
        <mxCell id="lezJPWRJIHB03nq9r9CJ-51" value="&lt;p class=&quot;MsoNormal&quot; style=&quot;text-align: justify ; line-height: 115%&quot;&gt;Prodi/Kelas : Informatika / B&lt;/p&gt;" style="text;html=1;strokeColor=none;fillColor=none;align=center;verticalAlign=middle;whiteSpace=wrap;rounded=0;fontColor=#FFFF99;fontSize=10;fontStyle=0;fontFamily=Verdana;" vertex="1" parent="1">
          <mxGeometry x="180" y="90" width="490" height="20" as="geometry" />
        </mxCell>
      </root>
    </mxGraphModel>
  </diagram>
</mxfile>
